# xmcd
# 
# Track frame offsets:
#     150
#     17215
#     41465
#     59900
#     82215
# 
# Disc length: 1330
# 
# Revision: 1
# Processed by: cddbd v1.5.2PL0 Copyright (c) Steve Scherf et al.
# Submitted via: fre:ac v1.0.17
# 
DISCID=43053005
DTITLE=齊藤ジョニー - She is
DYEAR=2015
DGENRE=JPop
TTITLE0=靴下を買いに
TTITLE1=君が20歳になったら
TTITLE2=月に吠える
TTITLE3=Music, Wind and Fire
TTITLE4=ごめんねの独り言
EXTD=
EXTT0=
EXTT1=
EXTT2=
EXTT3=
EXTT4=
PLAYORDER=
